<?xml version="1.0" standalone="no"?>
<!DOCTYPE svg PUBLIC "-//W3C//DTD SVG 20010904//EN"
 "http://www.w3.org/TR/2001/REC-SVG-20010904/DTD/svg10.dtd">
<svg version="1.0" xmlns="http://www.w3.org/2000/svg"
 width="522.000000pt" height="522.000000pt" viewBox="0 0 522.000000 522.000000"
 preserveAspectRatio="xMidYMid meet">
<metadata>
Created by potrace 1.14, written by Peter Selinger 2001-2017
</metadata>
<g transform="translate(0.000000,522.000000) scale(0.100000,-0.100000)"
fill="#000000" stroke="none">
<path d="M2564 5124 c-27 -54 -52 -100 -56 -102 -5 -2 -8 -9 -8 -15 0 -15 -63
-141 -72 -145 -5 -2 -8 -9 -8 -15 0 -15 -83 -181 -92 -185 -5 -2 -8 -8 -8 -14
0 -6 -101 -214 -225 -462 -124 -248 -225 -456 -225 -463 0 -6 -3 -13 -7 -15
-9 -3 -307 -601 -304 -607 2 -2 -1 -7 -6 -10 -7 -5 -178 -346 -181 -361 -1 -3
-24 -48 -52 -100 -27 -52 -50 -99 -50 -105 0 -5 -9 -21 -20 -35 -11 -14 -20
-29 -20 -33 0 -7 -141 -294 -168 -342 -35 -62 -782 -1575 -782 -1583 0 -6 -3
-12 -7 -14 -5 -2 -24 -37 -43 -78 -19 -41 -37 -77 -40 -80 -3 -3 -44 -85 -92
-182 l-88 -178 2600 0 2600 0 -79 158 c-278 555 -1035 2078 -1036 2082 0 3 -5
12 -10 20 -10 16 -53 106 -56 118 -1 4 -13 24 -25 44 -13 21 -24 40 -24 42 0
3 -305 619 -679 1368 -373 750 -680 1370 -683 1377 -2 8 -27 -30 -54 -85z"/>
</g>
</svg>
